<?xml version="1.0" encoding="UTF-8"?>
<svg version="1.1" xmlns="http://www.w3.org/2000/svg" width="2048" height="2048">
<path d="M0 0 C1.36583966 -0.00115486 2.73167902 -0.00274482 4.09751773 -0.00472724 C7.81748855 -0.00887023 11.53743346 -0.00685284 15.25740433 -0.00374103 C19.28192564 -0.00146659 23.30644268 -0.00497661 27.33096313 -0.00772095 C35.20075994 -0.01215533 43.07054719 -0.0112127 50.94034436 -0.00830831 C57.33682491 -0.00604575 63.73330279 -0.00574545 70.12978363 -0.00683212 C71.04171718 -0.00698536 71.95365072 -0.00713859 72.89321862 -0.00729647 C74.74600436 -0.0076162 76.5987901 -0.00794042 78.45157585 -0.00826906 C95.80219459 -0.01111685 113.15280805 -0.00784748 130.50342593 -0.00246869 C145.38467185 0.00200172 160.26590998 0.0012201 175.14715576 -0.00338745 C192.44382631 -0.00874039 209.74049223 -0.01084539 227.0371635 -0.00777519 C228.88173723 -0.00745665 230.72631097 -0.00714228 232.5708847 -0.00683212 C233.47837554 -0.00667785 234.38586638 -0.00652357 235.32085694 -0.00636462 C241.71023602 -0.00550185 248.09961216 -0.00695712 254.48899078 -0.00931168 C262.2742913 -0.01211772 270.05958173 -0.01135427 277.84488109 -0.00603093 C281.81548367 -0.00340527 285.78606945 -0.00236969 289.75667191 -0.00568008 C293.3933213 -0.0086662 297.02993835 -0.0070117 300.66658482 -0.00170253 C302.60067973 -0.00006164 304.5347769 -0.00331518 306.46886945 -0.00675976 C322.98615362 0.03043462 322.98615362 0.03043462 326.08270264 3.12698364 C326.6342219 6.8366764 326.64243202 10.41806975 326.08270264 14.12698364 C323.83270264 16.06448364 323.83270264 16.06448364 321.08270264 17.12698364 C318.01709668 19.83193008 316.14789858 22.62512965 314.08270264 26.12698364 C312.64520264 27.93948364 312.64520264 27.93948364 311.08270264 29.12698364 C309.76270264 29.12698364 308.44270264 29.12698364 307.08270264 29.12698364 C306.81457764 29.86948364 306.54645264 30.61198364 306.27020264 31.37698364 C305.11210405 34.05889617 304.10780278 36.02399504 302.08270264 38.12698364 C300.76270264 38.12698364 299.44270264 38.12698364 298.08270264 38.12698364 C297.75270264 39.44698364 297.42270264 40.76698364 297.08270264 42.12698364 C296.09270264 42.12698364 295.10270264 42.12698364 294.08270264 42.12698364 C293.75270264 44.43698364 293.42270264 46.74698364 293.08270264 49.12698364 C292.31957764 49.41573364 291.55645264 49.70448364 290.77020264 50.00198364 C286.50466623 51.7657302 286.50466623 51.7657302 284.08270264 55.50198364 C283.75270264 56.36823364 283.42270264 57.23448364 283.08270264 58.12698364 C281.70770264 60.43948364 281.70770264 60.43948364 280.08270264 62.12698364 C278.76270264 62.12698364 277.44270264 62.12698364 276.08270264 62.12698364 C275.49489014 63.76667114 275.49489014 63.76667114 274.89520264 65.43948364 C273.36936747 69.02156335 271.77056008 70.61401649 268.08270264 72.12698364 C267.42270264 71.79698364 266.76270264 71.46698364 266.08270264 71.12698364 C265.75270264 72.44698364 265.42270264 73.76698364 265.08270264 75.12698364 C264.42270264 75.12698364 263.76270264 75.12698364 263.08270264 75.12698364 C263.41270264 76.11698364 263.74270264 77.10698364 264.08270264 78.12698364 C262.33270264 80.12698364 262.33270264 80.12698364 260.08270264 82.12698364 C258.76270264 82.12698364 257.44270264 82.12698364 256.08270264 82.12698364 C256.08270264 82.78698364 256.08270264 83.44698364 256.08270264 84.12698364 C255.09270264 84.12698364 254.10270264 84.12698364 253.08270264 84.12698364 C253.26832764 85.20979614 253.26832764 85.20979614 253.45770264 86.31448364 C253.08270264 89.12698364 253.08270264 89.12698364 250.27020264 91.93948364 C247.08270264 94.12698364 247.08270264 94.12698364 244.08270264 94.12698364 C244.02082764 94.84885864 243.95895264 95.57073364 243.89520264 96.31448364 C242.8134783 100.05891406 241.07789477 101.68903656 238.08270264 104.12698364 C236.76270264 104.12698364 235.44270264 104.12698364 234.08270264 104.12698364 C233.83520264 105.19948364 233.58770264 106.27198364 233.33270264 107.37698364 C232.06640252 111.17588399 231.21448205 112.7320935 228.08270264 115.12698364 C227.40207764 115.25073364 226.72145264 115.37448364 226.02020264 115.50198364 C225.38082764 115.70823364 224.74145264 115.91448364 224.08270264 116.12698364 C223.06504337 118.11805612 222.06692409 120.11917187 221.08270264 122.12698364 C218.64520264 124.25198364 218.64520264 124.25198364 216.08270264 126.12698364 C212.10379142 129.85721291 207.82601423 133.89704885 206.08270264 139.12698364 C204.76270264 139.12698364 203.44270264 139.12698364 202.08270264 139.12698364 C202.08270264 140.44698364 202.08270264 141.76698364 202.08270264 143.12698364 C201.46395264 143.37448364 200.84520264 143.62198364 200.20770264 143.87698364 C197.73201577 145.33327004 197.13145261 146.5051087 196.08270264 149.12698364 C194.76270264 148.79698364 193.44270264 148.46698364 192.08270264 148.12698364 C192.18582764 148.84885864 192.28895264 149.57073364 192.39520264 150.31448364 C192.08270264 153.12698364 192.08270264 153.12698364 189.83270264 155.93948364 C187.08270264 158.12698364 187.08270264 158.12698364 183.08270264 158.12698364 C183.00020264 158.68385864 182.91770264 159.24073364 182.83270264 159.81448364 C181.8466083 162.85494118 180.19684046 164.75658669 178.08270264 167.12698364 C177.42270264 167.45698364 176.76270264 167.78698364 176.08270264 168.12698364 C175.75270264 169.11698364 175.42270264 170.10698364 175.08270264 171.12698364 C173.02020264 171.81448364 173.02020264 171.81448364 171.08270264 172.12698364 C170.97957764 172.76635864 170.87645264 173.40573364 170.77020264 174.06448364 C170.54332764 174.74510864 170.31645264 175.42573364 170.08270264 176.12698364 C169.09270264 176.45698364 168.10270264 176.78698364 167.08270264 177.12698364 C166.75270264 178.11698364 166.42270264 179.10698364 166.08270264 180.12698364 C164.43270264 180.45698364 162.78270264 180.78698364 161.08270264 181.12698364 C160.97957764 181.74573364 160.87645264 182.36448364 160.77020264 183.00198364 C160.08270264 185.12698364 160.08270264 185.12698364 157.08270264 187.12698364 C156.64957764 188.28198364 156.21645264 189.43698364 155.77020264 190.62698364 C154.08270264 194.12698364 154.08270264 194.12698364 151.02020264 195.31448364 C149.56614014 195.71667114 149.56614014 195.71667114 148.08270264 196.12698364 C146.66215196 198.12834608 146.66215196 198.12834608 146.08270264 200.12698364 C145.42270264 200.12698364 144.76270264 200.12698364 144.08270264 200.12698364 C143.89707764 201.03448364 143.71145264 201.94198364 143.52020264 202.87698364 C141.86075311 206.62878258 140.33325227 207.29685224 136.74676514 209.06057739 C134.14225159 210.72966706 133.41598559 213.4024489 132.08270264 216.12698364 C131.11332764 216.60135864 130.14395264 217.07573364 129.14520264 217.56448364 C125.93234412 219.20369717 125.58897045 219.60814563 124.08270264 222.62698364 C122.17614583 226.44009725 119.93708449 227.3228049 116.08270264 229.12698364 C114.34732072 231.51923323 114.34732072 231.51923323 113.08270264 234.12698364 C111.00033713 237.29580072 109.41958341 238.45854326 106.08270264 240.12698364 C105.07028579 241.45091336 104.06830874 242.78297532 103.08270264 244.12698364 C102.42270264 244.12698364 101.76270264 244.12698364 101.08270264 244.12698364 C100.75270264 245.77698364 100.42270264 247.42698364 100.08270264 249.12698364 C99.09270264 249.45698364 98.10270264 249.78698364 97.08270264 250.12698364 C94.74632484 252.17131422 93.16827574 253.97444029 91.64520264 256.68948364 C90.08270264 259.12698364 90.08270264 259.12698364 87.64520264 260.56448364 C84.38531407 262.55222058 83.10887124 264.92433004 81.08270264 268.12698364 C78.67230339 270.8295525 77.5442069 271.97314889 74.08270264 273.12698364 C73.75270264 274.11698364 73.42270264 275.10698364 73.08270264 276.12698364 C72.10420069 277.14802915 71.10289837 278.14759574 70.08270264 279.12698364 C69.42270264 280.11698364 68.76270264 281.10698364 68.08270264 282.12698364 C67.09270264 282.12698364 66.10270264 282.12698364 65.08270264 282.12698364 C62.14773939 285.23982345 60.61659131 288.18269848 59.08270264 292.12698364 C58.42270264 292.45698364 57.76270264 292.78698364 57.08270264 293.12698364 C56.42270264 292.79698364 55.76270264 292.46698364 55.08270264 292.12698364 C54.75270264 293.11698364 54.42270264 294.10698364 54.08270264 295.12698364 C53.09270264 295.12698364 52.10270264 295.12698364 51.08270264 295.12698364 C51.00020264 295.86948364 50.91770264 296.61198364 50.83270264 297.37698364 C49.92173891 300.71718398 48.72634116 301.93654029 46.08270264 304.12698364 C43.83270264 305.37698364 43.83270264 305.37698364 42.08270264 306.12698364 C42.12226161 308.05007786 42.12226161 308.05007786 43.08270264 310.12698364 C44.03145264 310.60135864 44.98020264 311.07573364 45.95770264 311.56448364 C49.54639963 313.35883214 50.22901332 314.67238083 52.08270264 318.12698364 C54.07590757 320.37737631 55.46909513 321.88154064 58.27020264 323.00198364 C60.08270264 324.12698364 60.08270264 324.12698364 60.83270264 327.25198364 C60.91520264 328.20073364 60.99770264 329.14948364 61.08270264 330.12698364 C62.07270264 330.45698364 63.06270264 330.78698364 64.08270264 331.12698364 C64.08270264 331.78698364 64.08270264 332.44698364 64.08270264 333.12698364 C64.86645264 333.20948364 65.65020264 333.29198364 66.45770264 333.37698364 C69.08270264 334.12698364 69.08270264 334.12698364 70.20770264 336.00198364 C70.49645264 336.70323364 70.78520264 337.40448364 71.08270264 338.12698364 C71.61895264 338.66323364 72.15520264 339.19948364 72.70770264 339.75198364 C73.16145264 340.20573364 73.61520264 340.65948364 74.08270264 341.12698364 C74.08270264 341.78698364 74.08270264 342.44698364 74.08270264 343.12698364 C74.80457764 343.12698364 75.52645264 343.12698364 76.27020264 343.12698364 C79.57470741 344.30191867 79.76274968 344.92302115 81.39520264 347.87698364 C83.72977572 352.04798842 86.23895173 353.69024534 90.35223389 355.96682739 C92.75725801 357.57922505 93.32463994 359.39795792 94.08270264 362.12698364 C94.74270264 362.45698364 95.40270264 362.78698364 96.08270264 363.12698364 C96.08270264 364.11698364 96.08270264 365.10698364 96.08270264 366.12698364 C97.73270264 365.79698364 99.38270264 365.46698364 101.08270264 365.12698364 C101.79884847 366.85224406 102.5149943 368.57750448 103.23114014 370.30276489 C104.62854489 373.29628793 105.77725134 374.94818288 108.64520264 376.62698364 C111.08270264 378.12698364 111.08270264 378.12698364 112.08270264 381.12698364 C114.4147328 383.76995116 115.69943542 384.9992279 119.08270264 386.12698364 C122.21529885 388.95396071 124.2187386 391.39905557 126.08270264 395.12698364 C128.44721943 397.1864015 130.07895114 398.12573314 133.08270264 399.12698364 C133.77928627 400.78136977 134.44367147 402.44952682 135.08270264 404.12698364 C136.82121725 406.2794303 138.32497152 407.26220349 140.77020264 408.62698364 C141.91489014 409.36948364 141.91489014 409.36948364 143.08270264 410.12698364 C143.08270264 411.11698364 143.08270264 412.10698364 143.08270264 413.12698364 C143.72207764 413.37448364 144.36145264 413.62198364 145.02020264 413.87698364 C147.08270264 415.12698364 147.08270264 415.12698364 147.83270264 417.25198364 C147.91520264 417.87073364 147.99770264 418.48948364 148.08270264 419.12698364 C149.07270264 419.12698364 150.06270264 419.12698364 151.08270264 419.12698364 C151.41270264 420.11698364 151.74270264 421.10698364 152.08270264 422.12698364 C153.07270264 422.45698364 154.06270264 422.78698364 155.08270264 423.12698364 C155.54676514 424.58104614 155.54676514 424.58104614 156.02020264 426.06448364 C156.75628128 429.18212991 156.75628128 429.18212991 158.95770264 430.37698364 C159.65895264 430.62448364 160.36020264 430.87198364 161.08270264 431.12698364 C163.20770264 431.93948364 163.20770264 431.93948364 165.08270264 433.12698364 C165.48489014 434.30260864 165.48489014 434.30260864 165.89520264 435.50198364 C167.24159597 438.47822154 167.78273468 438.68470562 170.58270264 440.06448364 C173.68775556 441.6298409 173.97222361 441.84526213 175.33270264 445.31448364 C175.58020264 446.24260864 175.82770264 447.17073364 176.08270264 448.12698364 C177.07270264 448.45698364 178.06270264 448.78698364 179.08270264 449.12698364 C180.80145264 450.86917114 180.80145264 450.86917114 182.58270264 453.00198364 C185.08535584 455.98082895 185.08535584 455.98082895 187.80145264 458.75979614 C189.08270264 460.12698364 189.08270264 460.12698364 189.08270264 462.12698364 C190.07270264 462.45698364 191.06270264 462.78698364 192.08270264 463.12698364 C192.39207764 463.78698364 192.70145264 464.44698364 193.02020264 465.12698364 C193.37082764 465.78698364 193.72145264 466.44698364 194.08270264 467.12698364 C195.40864368 467.48860393 196.74208721 467.82426403 198.08270264 468.12698364 C198.41270264 469.11698364 198.74270264 470.10698364 199.08270264 471.12698364 C200.07270264 471.45698364 201.06270264 471.78698364 202.08270264 472.12698364 C202.41270264 473.11698364 202.74270264 474.10698364 203.08270264 475.12698364 C202.75270264 475.78698364 202.42270264 476.44698364 202.08270264 477.12698364 C202.63957764 477.20948364 203.19645264 477.29198364 203.77020264 477.37698364 C206.89342797 478.38992159 208.73496784 479.84270114 211.08270264 482.12698364 C211.89520264 484.87698364 211.89520264 484.87698364 212.08270264 487.12698364 C213.07270264 487.12698364 214.06270264 487.12698364 215.08270264 487.12698364 C215.41270264 487.78698364 215.74270264 488.44698364 216.08270264 489.12698364 C216.63215779 489.12722784 217.18161294 489.12747205 217.74771825 489.12772365 C277.55163842 489.1544446 337.35555496 489.18609702 397.15945435 489.24362183 C398.49887223 489.24490809 398.49887223 489.24490809 399.86534907 489.24622034 C419.27019032 489.26488479 438.67503059 489.28443718 458.07987002 489.3049046 C467.59562526 489.31493601 477.11138069 489.32477116 486.62713623 489.33450317 C488.0475548 489.33596088 488.0475548 489.33596088 489.49666869 489.33744804 C520.2048757 489.36887042 550.9130739 489.38732579 581.6212942 489.39907611 C613.17085001 489.4112167 644.72036904 489.43640051 676.26990034 489.47805978 C680.72328235 489.48393411 685.17666453 489.4896589 689.63004684 489.49529266 C690.50655971 489.49640612 691.38307258 489.49751958 692.28614644 489.49866678 C706.41099267 489.51622506 720.53581067 489.51998224 734.66066634 489.51861285 C748.85159157 489.51753033 763.0424443 489.53090534 777.23334201 489.55914792 C785.67047099 489.57549705 794.10743612 489.58065122 802.54457507 489.56995539 C808.83590737 489.56319838 815.12703075 489.57715145 821.41832404 489.59932026 C823.97022478 489.6050393 826.52215134 489.60393431 829.07404454 489.59549609 C832.53069876 489.5850411 835.98641209 489.59894992 839.4430027 489.61917496 C840.94509209 489.60581939 840.94509209 489.60581939 842.47752672 489.59219402 C848.29800284 489.65797131 851.6754414 490.2024988 856.08270264 494.12698364 C856.53645264 495.11698364 856.99020264 496.10698364 857.45770264 497.12698364 C859.52185099 500.93771907 861.5169165 501.45034216 865.35223389 503.12698364 C867.08270264 504.12698364 867.08270264 504.12698364 867.89520264 506.68948364 C867.95707764 507.49385864 868.01895264 508.29823364 868.08270264 509.12698364 C869.81657277 511.55440183 870.77769393 512.05436252 873.70770264 512.75198364 C874.49145264 512.87573364 875.27520264 512.99948364 876.08270264 513.12698364 C877.08270264 514.12698364 877.08270264 514.12698364 877.14520264 516.68948364 C877.12457764 517.49385864 877.10395264 518.29823364 877.08270264 519.12698364 C877.74270264 519.12698364 878.40270264 519.12698364 879.08270264 519.12698364 C879.41270264 520.44698364 879.74270264 521.76698364 880.08270264 523.12698364 C881.47489014 523.25073364 881.47489014 523.25073364 882.89520264 523.37698364 C886.08270264 524.12698364 886.08270264 524.12698364 887.89520264 526.00198364 C889.08270264 528.12698364 889.08270264 528.12698364 890.08270264 531.12698364 C892.34051062 532.47298456 894.66902017 533.54213769 897.05145264 534.65042114 C899.71403861 536.58591633 899.56206814 537.97314004 900.08270264 541.12698364 C901.07270264 541.78698364 902.06270264 542.44698364 903.08270264 543.12698364 C903.08270264 543.78698364 903.08270264 544.44698364 903.08270264 545.12698364 C904.07270264 544.79698364 905.06270264 544.46698364 906.08270264 544.12698364 C908.27020264 545.31448364 908.27020264 545.31448364 910.08270264 547.12698364 C910.08270264 548.44698364 910.08270264 549.76698364 910.08270264 551.12698364 C910.74270264 551.12698364 911.40270264 551.12698364 912.08270264 551.12698364 C912.08270264 552.11698364 912.08270264 553.10698364 912.08270264 554.12698364 C912.99020264 554.18885864 913.89770264 554.25073364 914.83270264 554.31448364 C918.8808383 555.32651756 919.95117324 556.60176195 922.08270264 560.12698364 C922.08270264 561.44698364 922.08270264 562.76698364 922.08270264 564.12698364 C923.17582764 564.16823364 924.26895264 564.20948364 925.39520264 564.25198364 C929.08270264 565.12698364 929.08270264 565.12698364 931.02020264 568.06448364 C932.08270264 571.12698364 932.08270264 571.12698364 932.08270264 573.12698364 C933.07270264 573.45698364 934.06270264 573.78698364 935.08270264 574.12698364 C935.08270264 574.78698364 935.08270264 575.44698364 935.08270264 576.12698364 C935.86645264 576.20948364 936.65020264 576.29198364 937.45770264 576.37698364 C940.08270264 577.12698364 940.08270264 577.12698364 941.20770264 578.93948364 C941.49645264 579.66135864 941.78520264 580.38323364 942.08270264 581.12698364 C943.72505649 583.78603273 944.56892228 584.92937581 947.52020264 586.06448364 C950.82149341 587.43331152 952.13655196 589.1717178 954.08270264 592.12698364 C954.08270264 593.11698364 954.08270264 594.10698364 954.08270264 595.12698364 C955.47489014 595.28167114 955.47489014 595.28167114 956.89520264 595.43948364 C961.28742705 596.38682616 961.28742705 596.38682616 963.08270264 599.12698364 C963.77020264 602.31448364 963.77020264 602.31448364 964.08270264 605.12698364 C965.19645264 605.41573364 966.31020264 605.70448364 967.45770264 606.00198364 C971.08270264 607.12698364 971.08270264 607.12698364 973.08270264 609.12698364 C973.20770264 612.25198364 973.20770264 612.25198364 973.08270264 615.12698364 C974.13328857 615.18370239 975.18387451 615.24042114 976.26629639 615.29885864 C980.92620998 616.31001697 982.15593334 617.74125448 985.14520264 621.37698364 C989.05190669 626.01440499 989.05190669 626.01440499 993.58270264 630.00198364 C996.08270264 632.12698364 996.08270264 632.12698364 997.14520264 634.81448364 C997.86599579 637.35902048 997.86599579 637.35902048 1000.45770264 638.18948364 C1001.32395264 638.49885864 1002.19020264 638.80823364 1003.08270264 639.12698364 C1006.91702216 642.32224991 1006.91702216 642.32224991 1007.52020264 645.25198364 C1007.70582764 645.87073364 1007.89145264 646.48948364 1008.08270264 647.12698364 C1008.82520264 647.41573364 1009.56770264 647.70448364 1010.33270264 648.00198364 C1014.0301823 649.51458896 1015.56188918 652.08908024 1018.08270264 655.12698364 C1019.41131189 655.47867433 1020.74428591 655.81468641 1022.08270264 656.12698364 C1023.64520264 658.50198364 1023.64520264 658.50198364 1025.08270264 661.12698364 C1027.1473812 663.53577529 1027.97264923 664.09029917 1031.08270264 665.12698364 C1031.08270264 666.77698364 1031.08270264 668.42698364 1031.08270264 670.12698364 C1031.82520264 670.18885864 1032.56770264 670.25073364 1033.33270264 670.31448364 C1036.95053111 671.38338751 1038.02113978 673.03463936 1040.08270264 676.12698364 C1040.41270264 677.11698364 1040.74270264 678.10698364 1041.08270264 679.12698364 C1042.73708877 679.82356728 1044.40524582 680.48795247 1046.08270264 681.12698364 C1048.71240144 683.19317556 1049.51733269 684.84783796 1050.08270264 688.12698364 C1051.40270264 688.12698364 1052.72270264 688.12698364 1054.08270264 688.12698364 C1054.08270264 689.11698364 1054.08270264 690.10698364 1054.08270264 691.12698364 C1054.84582764 691.33323364 1055.60895264 691.53948364 1056.39520264 691.75198364 C1059.91510983 693.55286639 1060.56578035 695.56221626 1062.08270264 699.12698364 C1062.41270264 699.45698364 1062.74270264 699.78698364 1063.08270264 700.12698364 C1063.18094259 701.6034724 1063.21243782 703.08473781 1063.20770264 704.56448364 C1063.21028076 705.36756958 1063.21285889 706.17065552 1063.21551514 706.99807739 C1063.08270264 709.12698364 1063.08270264 709.12698364 1062.08270264 711.12698364 C1058.6426425 712.27367035 1055.99932485 712.25508675 1052.36910218 712.25923681 C1051.3332443 712.26245837 1051.3332443 712.26245837 1050.27645999 712.265745 C1047.94066395 712.27177193 1045.60492496 712.27063634 1043.26912212 712.26958466 C1041.57906691 712.27244602 1039.88901238 712.27574226 1038.19895878 712.27943623 C1033.5204028 712.28836577 1028.84186061 712.29100465 1024.16329716 712.29265936 C1019.08635625 712.29552109 1014.00942447 712.30408079 1008.93248922 712.31189775 C998.84765231 712.32648517 988.76281706 712.33558036 978.67797261 712.34298645 C970.29054904 712.34930378 961.90313057 712.35796105 953.51571083 712.36814499 C952.30707894 712.36961199 951.09844706 712.37107899 949.85318996 712.37259044 C947.38840078 712.37559097 944.92361159 712.37859521 942.45882242 712.3816031 C911.19606542 712.41933139 879.93330135 712.44415676 848.67053035 712.46630688 C843.83904814 712.46973012 839.00756598 712.4732087 834.17608383 712.47671819 C780.82645887 712.51541621 727.47683117 712.5490147 674.1271965 712.57088684 C662.23523089 712.57577978 650.34326535 712.58084262 638.45129984 712.58597917 C636.21178735 712.58694482 633.97227485 712.58790294 631.73276236 712.58886103 C584.52377798 712.60915962 537.31485874 712.65366005 490.10590808 712.71279517 C455.65243093 712.75594134 421.19896798 712.79572819 386.74546528 712.81061554 C386.03721353 712.81092317 385.32896179 712.81123079 384.59924786 712.81154774 C369.05285522 712.81822923 353.50646258 712.82296505 337.96006878 712.82587217 C331.70515824 712.8270718 325.45024776 712.82852856 319.1953373 712.83006287 C318.16847761 712.83030429 318.16847761 712.83030429 317.12087328 712.83055059 C295.05249167 712.83585908 272.98420273 712.86292721 250.91585572 712.90122276 C228.07624749 712.94073686 205.23672489 712.95537066 182.397078 712.94100648 C169.22078102 712.93348619 156.04483759 712.94560813 142.86859683 712.98542965 C134.07810935 713.01008479 125.28786161 713.00954353 116.49736611 712.9881305 C111.48141163 712.97664153 106.46613256 712.97645439 101.45024206 713.0068447 C96.89168744 713.03424712 92.33434864 713.02973845 87.7758241 712.9992048 C86.13252091 712.99388936 84.48912813 713.00044261 82.84593252 713.01998235 C70.556032 713.15677636 70.556032 713.15677636 66.85236356 710.56807429 C65.36602859 708.8239209 64.26576758 707.07916195 63.08270264 705.12698364 C61.41945863 704.12130122 59.75334011 703.12033565 58.08270264 702.12698364 C56.21590717 699.46013298 55.11273876 697.21709201 54.08270264 694.12698364 C53.34020264 694.10635864 52.59770264 694.08573364 51.83270264 694.06448364 C48.2915645 692.85727746 47.73702493 691.05011703 46.11004639 687.82229614 C44.63684156 685.3912281 42.50957761 684.54759339 40.08270264 683.12698364 C35.08270264 677.32097271 35.08270264 677.32097271 35.08270264 674.12698364 C33.76270264 673.79698364 32.44270264 673.46698364 31.08270264 673.12698364 C31.08270264 672.46698364 31.08270264 671.80698364 31.08270264 671.12698364 C30.09270264 670.79698364 29.10270264 670.46698364 28.08270264 670.12698364 C28.08270264 669.13698364 28.08270264 668.14698364 28.08270264 667.12698364 C27.09270264 666.79698364 26.10270264 666.46698364 25.08270264 666.12698364 C25.08270264 665.46698364 25.08270264 664.80698364 25.08270264 664.12698364 C24.09270264 663.79698364 23.10270264 663.46698364 22.08270264 663.12698364 C21.42270264 662.46698364 20.76270264 661.80698364 20.08270264 661.12698364 C19.46395264 660.52885864 18.84520264 659.93073364 18.20770264 659.31448364 C16.08270264 657.12698364 16.08270264 657.12698364 14.02020264 654.37698364 C13.38082764 653.63448364 12.74145264 652.89198364 12.08270264 652.12698364 C11.09270264 652.12698364 10.10270264 652.12698364 9.08270264 652.12698364 C8.83520264 651.36385864 8.58770264 650.60073364 8.33270264 649.81448364 C6.95202491 646.84602653 5.69519276 645.98100889 3.08270264 644.12698364 C2.75270264 643.13698364 2.42270264 642.14698364 2.08270264 641.12698364 C0.41999977 639.7887106 -1.24645918 638.45508579 -2.91729736 637.12698364 C-2.91729736 636.46698364 -2.91729736 635.80698364 -2.91729736 635.12698364 C-4.23729736 634.46698364 -5.55729736 633.80698364 -6.91729736 633.12698364 C-6.91729736 632.46698364 -6.91729736 631.80698364 -6.91729736 631.12698364 C-7.90729736 630.79698364 -8.89729736 630.46698364 -9.91729736 630.12698364 C-9.91729736 628.47698364 -9.91729736 626.82698364 -9.91729736 625.12698364 C-10.90729736 625.45698364 -11.89729736 625.78698364 -12.91729736 626.12698364 C-14.74151611 625.05276489 -14.74151611 625.05276489 -16.60479736 623.43948364 C-17.22741455 622.91999146 -17.85003174 622.40049927 -18.49151611 621.86526489 C-19.91729736 620.12698364 -19.91729736 620.12698364 -19.91729736 616.12698364 C-21.56729736 615.46698364 -23.21729736 614.80698364 -24.91729736 614.12698364 C-24.91729736 613.46698364 -24.91729736 612.80698364 -24.91729736 612.12698364 C-25.55667236 611.85885864 -26.19604736 611.59073364 -26.85479736 611.31448364 C-28.91729736 610.12698364 -28.91729736 610.12698364 -29.91729736 607.12698364 C-30.90729736 606.79698364 -31.89729736 606.46698364 -32.91729736 606.12698364 C-32.91729736 605.13698364 -32.91729736 604.14698364 -32.91729736 603.12698364 C-33.70104736 603.04448364 -34.48479736 602.96198364 -35.29229736 602.87698364 C-37.91729736 602.12698364 -37.91729736 602.12698364 -39.10479736 600.12698364 C-39.37292236 599.46698364 -39.64104736 598.80698364 -39.91729736 598.12698364 C-40.57729736 597.79698364 -41.23729736 597.46698364 -41.91729736 597.12698364 C-41.91729736 595.80698364 -41.91729736 594.48698364 -41.91729736 593.12698364 C-42.65979736 593.08573364 -43.40229736 593.04448364 -44.16729736 593.00198364 C-48.04534037 591.76806087 -49.00023298 589.6061005 -50.91729736 586.12698364 C-50.91729736 585.46698364 -50.91729736 584.80698364 -50.91729736 584.12698364 C-51.63917236 583.92073364 -52.36104736 583.71448364 -53.10479736 583.50198364 C-56.8894812 581.65169377 -58.43988389 579.52457927 -60.91729736 576.12698364 C-60.91729736 575.46698364 -60.91729736 574.80698364 -60.91729736 574.12698364 C-62.23729736 574.12698364 -63.55729736 574.12698364 -64.91729736 574.12698364 C-65.24729736 573.13698364 -65.57729736 572.14698364 -65.91729736 571.12698364 C-66.70104736 570.34323364 -67.48479736 569.55948364 -68.29229736 568.75198364 C-70.91729736 566.12698364 -70.91729736 566.12698364 -72.41729736 563.43948364 C-74.27563746 560.57454265 -75.7860446 560.30120343 -78.91729736 559.12698364 C-81.33112246 556.54668785 -81.91729736 555.72041284 -81.91729736 552.12698364 C-82.78354736 551.79698364 -83.64979736 551.46698364 -84.54229736 551.12698364 C-88.37427448 548.85618239 -89.97757898 546.56245268 -92.47979736 542.97854614 C-94.29476833 540.64078462 -96.35765046 539.57088702 -98.91729736 538.12698364 C-103.91729736 533.08577485 -103.91729736 533.08577485 -103.91729736 530.12698364 C-105.31979367 529.17728489 -106.76597604 528.29162843 -108.22979736 527.43948364 C-111.51253091 525.36024835 -113.3793349 524.01832837 -114.66729736 520.31448364 C-115.28604736 518.73667114 -115.28604736 518.73667114 -115.91729736 517.12698364 C-118.49462651 516.07530837 -118.49462651 516.07530837 -120.91729736 516.12698364 C-121.24729736 514.14698364 -121.57729736 512.16698364 -121.91729736 510.12698364 C-122.90729736 509.79698364 -123.89729736 509.46698364 -124.91729736 509.12698364 C-124.91729736 508.46698364 -124.91729736 507.80698364 -124.91729736 507.12698364 C-125.63917236 507.06510864 -126.36104736 507.00323364 -127.10479736 506.93948364 C-130.84922778 505.8577593 -132.47935028 504.12217578 -134.91729736 501.12698364 C-134.91729736 499.80698364 -134.91729736 498.48698364 -134.91729736 497.12698364 C-135.90729736 496.79698364 -136.89729736 496.46698364 -137.91729736 496.12698364 C-138.24729736 495.46698364 -138.57729736 494.80698364 -138.91729736 494.12698364 C-140.40229736 493.44635864 -140.40229736 493.44635864 -141.91729736 492.75198364 C-144.91729736 491.12698364 -144.91729736 491.12698364 -145.66729736 489.12698364 C-145.74979736 488.46698364 -145.83229736 487.80698364 -145.91729736 487.12698364 C-147.61533412 483.85521672 -147.61533412 483.85521672 -150.85479736 483.37698364 C-153.91729736 482.12698364 -153.91729736 482.12698364 -155.47979736 478.62698364 C-155.95417236 477.47198364 -156.42854736 476.31698364 -156.91729736 475.12698364 C-159.34112813 473.95744949 -159.34112813 473.95744949 -161.91729736 473.12698364 C-164.378579 470.46059521 -165.76740721 468.5766541 -166.91729736 465.12698364 C-168.68047559 463.6356137 -168.68047559 463.6356137 -170.79229736 462.25198364 C-175.15958598 459.10347325 -177.20972876 456.24968945 -178.91729736 451.12698364 C-180.56729736 451.12698364 -182.21729736 451.12698364 -183.91729736 451.12698364 C-184.24729736 449.47698364 -184.57729736 447.82698364 -184.91729736 446.12698364 C-185.90729736 445.79698364 -186.89729736 445.46698364 -187.91729736 445.12698364 C-188.24729736 444.46698364 -188.57729736 443.80698364 -188.91729736 443.12698364 C-190.03104736 442.73510864 -191.14479736 442.34323364 -192.29229736 441.93948364 C-194.22589111 441.17385864 -194.22589111 441.17385864 -195.91729736 440.12698364 C-196.39167236 438.99260864 -196.86604736 437.85823364 -197.35479736 436.68948364 C-199.26111782 432.343073 -200.83554297 431.72350493 -205.07745361 430.04885864 C-206.91729736 429.12698364 -206.91729736 429.12698364 -208.91729736 426.12698364 C-208.91729736 425.46698364 -208.91729736 424.80698364 -208.91729736 424.12698364 C-210.61954028 421.97678206 -211.68676361 421.19200598 -214.35479736 420.43948364 C-217.37491001 418.89259668 -217.52324981 418.14982225 -218.79229736 415.12698364 C-219.67781338 412.94475456 -219.67781338 412.94475456 -220.91729736 411.12698364 C-222.09292236 410.79698364 -223.26854736 410.46698364 -224.47979736 410.12698364 C-225.61417236 409.79698364 -226.74854736 409.46698364 -227.91729736 409.12698364 C-228.95475589 407.09080986 -229.53810328 405.07881556 -230.17901611 402.88870239 C-230.42264893 402.30733521 -230.66628174 401.72596802 -230.91729736 401.12698364 C-233.34189523 400.29206011 -233.34189523 400.29206011 -235.91729736 400.12698364 C-239.7685872 397.02455572 -239.7685872 397.02455572 -240.24542236 394.14651489 C-240.74958676 391.93753897 -240.74958676 391.93753897 -242.94854736 390.78323364 C-243.76323486 390.40167114 -244.57792236 390.02010864 -245.41729736 389.62698364 C-247.88604736 388.47073364 -247.88604736 388.47073364 -249.91729736 387.12698364 C-250.62432861 385.06838989 -250.62432861 385.06838989 -250.91729736 383.12698364 C-252.70405223 380.7759904 -254.1896644 380.00214875 -256.91729736 378.75198364 C-260.29352412 376.92319415 -261.35954064 375.58866525 -262.91729736 372.12698364 C-262.91729736 371.13698364 -262.91729736 370.14698364 -262.91729736 369.12698364 C-263.90729736 369.45698364 -264.89729736 369.78698364 -265.91729736 370.12698364 C-268.7530392 368.81285938 -270.50370942 367.75721289 -272.22979736 365.12698364 C-272.91729736 363.12698364 -272.91729736 363.12698364 -272.91729736 360.12698364 C-274.24760986 359.81760864 -274.24760986 359.81760864 -275.60479736 359.50198364 C-279.84008418 357.74394006 -281.2222307 355.77325031 -283.91729736 352.12698364 C-283.58729736 351.46698364 -283.25729736 350.80698364 -282.91729736 350.12698364 C-284.89729736 349.79698364 -286.87729736 349.46698364 -288.91729736 349.12698364 C-288.91729736 348.46698364 -288.91729736 347.80698364 -288.91729736 347.12698364 C-289.53604736 346.87948364 -290.15479736 346.63198364 -290.79229736 346.37698364 C-292.91729736 345.12698364 -292.91729736 345.12698364 -293.91729736 343.06448364 C-294.74687956 340.91418085 -294.74687956 340.91418085 -297.04229736 340.37698364 C-297.66104736 340.29448364 -298.27979736 340.21198364 -298.91729736 340.12698364 C-298.91729736 339.46698364 -298.91729736 338.80698364 -298.91729736 338.12698364 C-299.90729736 337.46698364 -300.89729736 336.80698364 -301.91729736 336.12698364 C-302.90729736 335.46698364 -303.89729736 334.80698364 -304.91729736 334.12698364 C-304.91729736 333.46698364 -304.91729736 332.80698364 -304.91729736 332.12698364 C-305.90729736 331.79698364 -306.89729736 331.46698364 -307.91729736 331.12698364 C-307.91729736 330.13698364 -307.91729736 329.14698364 -307.91729736 328.12698364 C-308.84542236 327.71448364 -309.77354736 327.30198364 -310.72979736 326.87698364 C-313.83709228 325.17101781 -315.24426984 324.19420077 -316.91729736 321.12698364 C-316.91729736 319.80698364 -316.91729736 318.48698364 -316.91729736 317.12698364 C-318.23729736 317.78698364 -319.55729736 318.44698364 -320.91729736 319.12698364 C-322.12002555 316.72152726 -322.01801208 315.17701412 -321.97979736 312.50198364 C-321.97077393 311.68471802 -321.96175049 310.86745239 -321.95245361 310.02542114 C-321.94085205 309.39893677 -321.92925049 308.77245239 -321.91729736 308.12698364 C-320.59729736 308.12698364 -319.27729736 308.12698364 -317.91729736 308.12698364 C-317.87604736 307.40510864 -317.83479736 306.68323364 -317.79229736 305.93948364 C-316.50997375 301.81772917 -314.43619023 300.59020865 -310.91729736 298.12698364 C-309.92729736 298.12698364 -308.93729736 298.12698364 -307.91729736 298.12698364 C-307.87604736 297.40510864 -307.83479736 296.68323364 -307.79229736 295.93948364 C-306.74982827 292.58869012 -305.15535271 291.58945077 -302.41729736 289.52932739 C-299.87326475 287.15092191 -299.06269809 284.37228569 -297.91729736 281.12698364 C-296.92729736 281.45698364 -295.93729736 281.78698364 -294.91729736 282.12698364 C-294.91729736 281.46698364 -294.91729736 280.80698364 -294.91729736 280.12698364 C-293.59729736 279.79698364 -292.27729736 279.46698364 -290.91729736 279.12698364 C-290.77292236 278.52885864 -290.62854736 277.93073364 -290.47979736 277.31448364 C-290.03005347 275.5654796 -289.48837395 273.84021341 -288.91729736 272.12698364 C-287.59729736 272.12698364 -286.27729736 272.12698364 -284.91729736 272.12698364 C-284.91729736 271.46698364 -284.91729736 270.80698364 -284.91729736 270.12698364 C-283.92729736 270.12698364 -282.93729736 270.12698364 -281.91729736 270.12698364 C-281.58729736 268.80698364 -281.25729736 267.48698364 -280.91729736 266.12698364 C-280.25729736 266.12698364 -279.59729736 266.12698364 -278.91729736 266.12698364 C-279.41229736 264.64198364 -279.41229736 264.64198364 -279.91729736 263.12698364 C-278.27760986 262.32260864 -278.27760986 262.32260864 -276.60479736 261.50198364 C-272.81775285 259.35751265 -271.66723552 257.1268423 -269.91729736 253.12698364 C-267.58998756 250.23790941 -266.42098068 249.25794131 -262.79229736 248.31448364 C-261.84354736 247.92260864 -260.89479736 247.53073364 -259.91729736 247.12698364 C-259.23944745 244.79687455 -258.57312944 242.4633854 -257.91729736 240.12698364 C-255.93563703 239.09111574 -253.93255905 238.09585945 -251.91729736 237.12698364 C-250.2514467 235.17999446 -248.81668758 233.13508341 -247.34698486 231.03713989 C-245.5200926 228.59629203 -243.31557872 226.99881299 -240.91729736 225.12698364 C-239.77264702 223.8526982 -238.64950569 222.55893334 -237.54229736 221.25198364 C-235.23952662 218.54195432 -232.92155307 216.1882114 -230.16729736 213.93948364 C-227.33266261 211.62368829 -225.74099351 209.31845191 -223.91729736 206.12698364 C-222.92729736 205.79698364 -221.93729736 205.46698364 -220.91729736 205.12698364 C-219.35720359 203.2973084 -219.35720359 203.2973084 -217.91729736 201.12698364 C-215.2506307 197.23809475 -215.2506307 197.23809475 -211.91729736 196.12698364 C-211.25729736 195.13698364 -210.59729736 194.14698364 -209.91729736 193.12698364 C-209.25729736 193.12698364 -208.59729736 193.12698364 -207.91729736 193.12698364 C-207.81417236 192.36385864 -207.71104736 191.60073364 -207.60479736 190.81448364 C-206.84683467 187.85153858 -206.3292354 186.93593717 -203.91729736 185.12698364 C-203.05104736 184.79698364 -202.18479736 184.46698364 -201.29229736 184.12698364 C-200.50854736 183.79698364 -199.72479736 183.46698364 -198.91729736 183.12698364 C-198.58729736 182.13698364 -198.25729736 181.14698364 -197.91729736 180.12698364 C-197.25729736 180.12698364 -196.59729736 180.12698364 -195.91729736 180.12698364 C-195.83479736 179.34323364 -195.75229736 178.55948364 -195.66729736 177.75198364 C-194.91729736 175.12698364 -194.91729736 175.12698364 -192.97979736 173.75198364 C-190.91729736 173.12698364 -190.91729736 173.12698364 -188.91729736 174.12698364 C-188.58729736 172.80698364 -188.25729736 171.48698364 -187.91729736 170.12698364 C-187.25729736 170.12698364 -186.59729736 170.12698364 -185.91729736 170.12698364 C-185.76260986 168.95135864 -185.76260986 168.95135864 -185.60479736 167.75198364 C-184.91729736 165.12698364 -184.91729736 165.12698364 -181.91729736 163.12698364 C-181.25729736 163.45698364 -180.59729736 163.78698364 -179.91729736 164.12698364 C-179.67237549 163.57010864 -179.42745361 163.01323364 -179.17510986 162.43948364 C-176.1890003 156.34370136 -172.66310036 152.93513327 -167.12432861 149.04885864 C-164.63463205 146.88083969 -164.03666116 145.17470598 -162.91729736 142.12698364 C-160.35479736 140.93948364 -160.35479736 140.93948364 -157.91729736 140.12698364 C-157.58729736 139.46698364 -157.25729736 138.80698364 -156.91729736 138.12698364 C-156.25729736 138.12698364 -155.59729736 138.12698364 -154.91729736 138.12698364 C-155.24729736 137.13698364 -155.57729736 136.14698364 -155.91729736 135.12698364 C-150.16729736 130.12698364 -150.16729736 130.12698364 -147.91729736 130.12698364 C-147.48417236 129.21948364 -147.05104736 128.31198364 -146.60479736 127.37698364 C-143.02729736 120.48698364 -143.02729736 120.48698364 -139.60479736 119.37698364 C-136.02917728 117.71390454 -134.61630176 115.31802894 -132.44464111 112.09963989 C-130.33601544 109.3762231 -127.98342408 107.660047 -124.91729736 106.12698364 C-124.26516445 104.10235109 -124.26516445 104.10235109 -123.91729736 102.12698364 C-123.25729736 102.12698364 -122.59729736 102.12698364 -121.91729736 102.12698364 C-121.54604736 101.16792114 -121.54604736 101.16792114 -121.16729736 100.18948364 C-120.75479736 99.50885864 -120.34229736 98.82823364 -119.91729736 98.12698364 C-119.27792236 98.02385864 -118.63854736 97.92073364 -117.97979736 97.81448364 C-117.29917236 97.58760864 -116.61854736 97.36073364 -115.91729736 97.12698364 C-114.88627789 94.80718984 -113.8879322 92.47268449 -112.91729736 90.12698364 C-110.54953813 87.90720936 -109.01706961 87.16024106 -105.91729736 86.12698364 C-104.71581149 84.3928808 -104.71581149 84.3928808 -103.66729736 82.31448364 C-101.84788841 79.2065571 -100.45240734 77.56083835 -97.22979736 75.93948364 C-93.75513717 74.43645801 -93.75513717 74.43645801 -92.47979736 71.37698364 C-92.29417236 70.63448364 -92.10854736 69.89198364 -91.91729736 69.12698364 C-91.25729736 69.12698364 -90.59729736 69.12698364 -89.91729736 69.12698364 C-89.76260986 68.16792114 -89.76260986 68.16792114 -89.60479736 67.18948364 C-89.26448486 66.16854614 -89.26448486 66.16854614 -88.91729736 65.12698364 C-85.91729736 64.12698364 -85.91729736 64.12698364 -82.91729736 65.12698364 C-83.28854736 64.29167114 -83.28854736 64.29167114 -83.66729736 63.43948364 C-83.91729736 61.12698364 -83.91729736 61.12698364 -82.35479736 58.43948364 C-79.49742911 55.72864709 -77.78402442 55.39062412 -73.91729736 55.12698364 C-73.87604736 54.24010864 -73.83479736 53.35323364 -73.79229736 52.43948364 C-72.58499324 47.86897519 -70.75650294 46.79092221 -66.91729736 44.12698364 C-66.25729736 44.12698364 -65.59729736 44.12698364 -64.91729736 44.12698364 C-64.91729736 43.46698364 -64.91729736 42.80698364 -64.91729736 42.12698364 C-63.92729736 42.12698364 -62.93729736 42.12698364 -61.91729736 42.12698364 C-61.58729736 40.47698364 -61.25729736 38.82698364 -60.91729736 37.12698364 C-59.43229736 36.63198364 -59.43229736 36.63198364 -57.91729736 36.12698364 C-56.68759859 32.61507555 -56.68759859 32.61507555 -55.91729736 29.12698364 C-54.92729736 29.12698364 -53.93729736 29.12698364 -52.91729736 29.12698364 C-50.31315022 26.77285598 -50.31315022 26.77285598 -47.91729736 24.12698364 C-47.25729736 23.46698364 -46.59729736 22.80698364 -45.91729736 22.12698364 C-44.59729736 22.12698364 -43.27729736 22.12698364 -41.91729736 22.12698364 C-41.85542236 21.40510864 -41.79354736 20.68323364 -41.72979736 19.93948364 C-40.45163778 15.51508509 -37.54773542 13.05236741 -33.60479736 10.81448364 C-33.04792236 10.58760864 -32.49104736 10.36073364 -31.91729736 10.12698364 C-32.24729736 9.13698364 -32.57729736 8.14698364 -32.91729736 7.12698364 C-30.17255306 3.96666185 -27.56158391 1.45790774 -23.36653829 0.61362565 C-22.42767679 0.55748876 -21.48881529 0.50135187 -20.52150345 0.44351387 C-18.92446382 0.347921 -18.92446382 0.347921 -17.29516077 0.25039697 C-11.52824451 0.03969741 -5.77044105 -0.01035078 0 0 Z " fill="#FFFFFF" transform="translate(583.9172973632813,771.8730163574219)"/>
<path d="M0 0 C0.8449927 0.00234117 1.68998541 0.00468233 2.56058395 0.00709444 C3.45377027 0.005641 4.3469566 0.00418756 5.26720917 0.00269008 C8.29973704 -0.00099759 11.3322155 0.00252925 14.36474311 0.00595194 C16.54518504 0.00480119 18.72562677 0.00321398 20.90606809 0.0012247 C26.92909042 -0.00297544 32.95209705 -0.00087482 38.97511947 0.00221092 C45.45943138 0.00446222 51.94374047 0.00098663 58.42805183 -0.00176901 C70.41068709 -0.00616664 82.39331734 -0.00558904 94.3759529 -0.00285754 C105.45265482 -0.00034493 116.5293549 0.00031612 127.60605705 -0.00088018 C128.33996158 -0.00095657 129.07386611 -0.00103295 129.83001017 -0.00111165 C132.8090993 -0.00142298 135.78818843 -0.00174138 138.76727756 -0.00207142 C166.74628281 -0.00513406 194.72528484 -0.002352 222.7042896 0.00302548 C247.55028681 0.00776454 272.3962789 0.0073527 297.24227607 0.00256449 C325.14800343 -0.00279538 353.05372793 -0.00490994 380.95945573 -0.00182325 C383.93755257 -0.00150253 386.91564941 -0.00118969 389.89374626 -0.00088018 C390.62704132 -0.0008011 391.36033638 -0.00072203 392.1158525 -0.00064055 C403.17463291 0.00049545 414.23341126 -0.00083076 425.29219139 -0.00335974 C437.88138434 -0.00622431 450.47057146 -0.00549318 463.05976368 -0.00007899 C469.4817274 0.0025447 475.90368074 0.00358575 482.32564437 0.00027186 C488.21074151 -0.00271894 494.0958187 -0.00105204 499.98091404 0.00424941 C502.10428617 0.00536182 504.22766 0.00480866 506.35103102 0.00237362 C516.58596921 -0.00845831 526.74096952 0.07662394 536.94892514 0.8887164 C543.17859619 1.35862138 549.42374144 1.50548345 555.66756904 1.67785746 C556.40135851 1.69865587 557.13514797 1.71945427 557.89117348 1.74088293 C578.3271598 2.30692124 598.76812751 2.33984702 619.21056592 2.40332705 C624.84518409 2.42197644 630.47977827 2.44623559 636.1143769 2.46997172 C649.22865751 2.52437597 662.34295682 2.57263624 675.45726478 2.61991221 C709.87965233 2.7442886 744.30186131 2.88261396 778.72391427 3.08058077 C784.94939489 3.11602945 791.17487748 3.14720965 797.40039778 3.17478138 C806.81892737 3.21653303 816.23718701 3.27029742 825.65546083 3.35222965 C829.87163478 3.38872159 834.08760105 3.41908492 838.30391777 3.4323588 C842.13282629 3.44466237 845.96112129 3.47518624 849.78977239 3.52093416 C851.16957309 3.53423139 852.54945803 3.54078272 853.9293226 3.54004198 C855.78943733 3.54005464 857.64949604 3.56673479 859.50939643 3.59497172 C861.05753375 3.60603323 861.05753375 3.60603323 862.63694656 3.61731821 C865.18661201 4.13293558 865.18661201 4.13293558 867.02093017 6.02349192 C868.37910433 8.48127394 868.52987981 9.9692284 868.43661201 12.75793558 C868.42114326 13.53395121 868.40567451 14.30996683 868.38973701 15.10949808 C868.18661201 17.13293558 868.18661201 17.13293558 867.18661201 19.13293558 C866.52661201 19.13293558 865.86661201 19.13293558 865.18661201 19.13293558 C864.93911201 19.93731058 864.69161201 20.74168558 864.43661201 21.57043558 C864.02411201 22.41606058 863.61161201 23.26168558 863.18661201 24.13293558 C862.55239326 24.27859965 861.91817451 24.42426371 861.26473701 24.57434183 C858.57324949 25.29780558 858.10741933 26.29052352 856.68661201 28.63293558 C854.65921475 31.97540134 854.65921475 31.97540134 852.03036201 32.85168558 C851.11770576 32.99090433 851.11770576 32.99090433 850.18661201 33.13293558 C850.12473701 33.68981058 850.06286201 34.24668558 849.99911201 34.82043558 C848.82027703 38.17558131 846.88451487 39.87422621 844.18661201 42.13293558 C842.86661201 42.13293558 841.54661201 42.13293558 840.18661201 42.13293558 C840.18661201 43.45293558 840.18661201 44.77293558 840.18661201 46.13293558 C838.70161201 46.62793558 838.70161201 46.62793558 837.18661201 47.13293558 C836.50174476 48.45701227 835.83790998 49.79202799 835.18661201 51.13293558 C833.31161201 53.38293558 833.31161201 53.38293558 831.18661201 55.13293558 C829.86661201 55.13293558 828.54661201 55.13293558 827.18661201 55.13293558 C826.95973701 56.04043558 826.73286201 56.94793558 826.49911201 57.88293558 C824.99003635 61.61969435 823.60222067 63.05024738 820.18661201 65.13293558 C819.19661201 64.80293558 818.20661201 64.47293558 817.18661201 64.13293558 C817.12473701 64.85481058 817.06286201 65.57668558 816.99911201 66.32043558 C815.92468536 70.03960476 814.12928207 71.68071053 811.18661201 74.13293558 C810.19661201 74.13293558 809.20661201 74.13293558 808.18661201 74.13293558 C808.18661201 75.45293558 808.18661201 76.77293558 808.18661201 78.13293558 C806.70161201 78.62793558 806.70161201 78.62793558 805.18661201 79.13293558 C802.66877023 81.40513427 800.58648348 83.33319264 799.06161201 86.38293558 C798.77286201 86.96043558 798.48411201 87.53793558 798.18661201 88.13293558 C796.70161201 88.62793558 796.70161201 88.62793558 795.18661201 89.13293558 C793.47520732 91.09478975 791.80787876 93.09595941 790.18661201 95.13293558 C789.52661201 95.79293558 788.86661201 96.45293558 788.18661201 97.13293558 C787.19661201 96.80293558 786.20661201 96.47293558 785.18661201 96.13293558 C785.16598701 96.85481058 785.14536201 97.57668558 785.12411201 98.32043558 C783.76648969 102.39330254 780.88592708 104.12522417 777.18661201 106.13293558 C776.52661201 106.13293558 775.86661201 106.13293558 775.18661201 106.13293558 C775.51661201 107.45293558 775.84661201 108.77293558 776.18661201 110.13293558 C774.70161201 110.62793558 774.70161201 110.62793558 773.18661201 111.13293558 C772.34098701 111.97856058 771.49536201 112.82418558 770.62411201 113.69543558 C769.81973701 114.49981058 769.01536201 115.30418558 768.18661201 116.13293558 C767.52661201 116.13293558 766.86661201 116.13293558 766.18661201 116.13293558 C766.51661201 117.12293558 766.84661201 118.11293558 767.18661201 119.13293558 C766.52661201 119.46293558 765.86661201 119.79293558 765.18661201 120.13293558 C764.52661201 119.80293558 763.86661201 119.47293558 763.18661201 119.13293558 C762.91848701 119.89606058 762.65036201 120.65918558 762.37411201 121.44543558 C761.22690472 124.04174681 760.24014533 125.25797038 758.18661201 127.13293558 C757.85661201 127.79293558 757.52661201 128.45293558 757.18661201 129.13293558 C755.86661201 128.80293558 754.54661201 128.47293558 753.18661201 128.13293558 C753.12473701 128.87543558 753.06286201 129.61793558 752.99911201 130.38293558 C751.9252616 134.01750621 750.286917 135.04203222 747.18661201 137.13293558 C746.44411201 137.46293558 745.70161201 137.79293558 744.93661201 138.13293558 C744.35911201 138.46293558 743.78161201 138.79293558 743.18661201 139.13293558 C743.06286201 139.73106058 742.93911201 140.32918558 742.81161201 140.94543558 C741.78134298 144.55137718 739.16251879 145.94655509 736.18661201 148.13293558 C735.52661201 148.13293558 734.86661201 148.13293558 734.18661201 148.13293558 C734.51661201 149.12293558 734.84661201 150.11293558 735.18661201 151.13293558 C733.79442451 152.03012308 733.79442451 152.03012308 732.37411201 152.94543558 C727.61894499 156.1646158 727.61894499 156.1646158 725.18661201 161.13293558 C723.86661201 161.13293558 722.54661201 161.13293558 721.18661201 161.13293558 C721.00098701 161.68981058 720.81536201 162.24668558 720.62411201 162.82043558 C719.1300676 165.22389832 718.05994376 166.02988108 715.74911201 167.57043558 C712.52989475 169.73645213 711.12962129 171.75378901 709.18661201 175.13293558 C708.14907719 176.0172593 707.08425339 176.87022342 705.99911201 177.69543558 C704.60692451 178.90199808 704.60692451 178.90199808 703.18661201 180.13293558 C703.18661201 181.45293558 703.18661201 182.77293558 703.18661201 184.13293558 C701.86661201 183.80293558 700.54661201 183.47293558 699.18661201 183.13293558 C698.85661201 184.12293558 698.52661201 185.11293558 698.18661201 186.13293558 C697.52661201 186.13293558 696.86661201 186.13293558 696.18661201 186.13293558 C695.52661201 187.45293558 694.86661201 188.77293558 694.18661201 190.13293558 C692.86661201 190.13293558 691.54661201 190.13293558 690.18661201 190.13293558 C690.06286201 190.96824808 690.06286201 190.96824808 689.93661201 191.82043558 C688.92367406 194.94366092 687.47089451 196.78520079 685.18661201 199.13293558 C682.43661201 199.94543558 682.43661201 199.94543558 680.18661201 200.13293558 C680.02161201 200.97856058 679.85661201 201.82418558 679.68661201 202.69543558 C677.63422924 207.39881275 674.35131255 210.20029228 670.18661201 213.13293558 C669.52661201 213.13293558 668.86661201 213.13293558 668.18661201 213.13293558 C667.98036201 213.85481058 667.77411201 214.57668558 667.56161201 215.32043558 C665.71132213 219.10511942 663.58420763 220.65552211 660.18661201 223.13293558 C659.52661201 223.13293558 658.86661201 223.13293558 658.18661201 223.13293558 C657.95973701 223.68981058 657.73286201 224.24668558 657.49911201 224.82043558 C655.80043223 227.81334758 653.76588514 229.86820796 651.18661201 232.13293558 C650.19661201 232.13293558 649.20661201 232.13293558 648.18661201 232.13293558 C648.18661201 232.79293558 648.18661201 233.45293558 648.18661201 234.13293558 C647.52661201 234.79293558 646.86661201 235.45293558 646.18661201 236.13293558 C645.77137327 236.82389174 645.35613453 237.5148479 644.9283128 238.22674213 C643.18661201 240.13293558 643.18661201 240.13293558 640.5583104 240.63256558 C638.95504946 240.63230092 638.95504946 240.63230092 637.31939942 240.6320309 C636.08432293 240.64153253 634.84924644 240.65103415 633.57674339 240.6608237 C632.19600123 240.65113763 630.81526158 240.64108737 629.43452442 240.63071352 C627.96958133 240.63427666 626.50464163 240.63959422 625.03971055 240.64651525 C620.9860658 240.66051631 616.93280902 240.64938437 612.87918188 240.63440308 C608.47978743 240.62250924 604.08044419 240.63370845 599.68105 240.64204472 C591.96120656 240.653445 584.24148053 240.64988141 576.52164161 240.63667399 C565.04212996 240.61708827 553.56270474 240.62029068 542.08318316 240.62817458 C522.77367455 240.64074479 503.4642147 240.63435881 484.1547116 240.61698633 C465.02428632 240.59977845 445.89388293 240.58994552 426.76344955 240.5903216 C424.9808367 240.59034454 424.9808367 240.59034454 423.16221146 240.59036794 C418.33847205 240.59044975 413.51473264 240.59058097 408.69099323 240.59077956 C363.40434488 240.59259326 318.11772994 240.57267932 272.83109319 240.54192023 C232.571258 240.51467615 192.31144657 240.50219737 152.05160224 240.50354105 C149.46709556 240.50362187 146.88258888 240.50370259 144.2980822 240.50378321 C143.02036987 240.50382391 141.74265755 240.50386461 140.42622668 240.50390655 C133.99478086 240.50410813 127.56333504 240.5042893 121.13188922 240.50444704 C119.22877293 240.50449718 119.22877293 240.50449718 117.28720985 240.50454834 C83.67794058 240.50527832 50.06867429 240.4962051 16.45940751 240.48379391 C15.26417451 240.48335337 14.06894151 240.48291283 12.83748933 240.48245893 C8.03085562 240.48068241 3.2242219 240.47890562 -1.58241179 240.47707702 C-18.32325463 240.47075143 -35.06409513 240.46773776 -51.80493909 240.46685404 C-73.37816879 240.46566101 -94.95137888 240.45769568 -116.52460019 240.43799113 C-127.94111502 240.42774415 -139.35760105 240.42294802 -150.77412027 240.42598349 C-158.39160717 240.42744857 -166.00906597 240.42167327 -173.62654386 240.40989588 C-177.97234358 240.40337486 -182.31808277 240.40004549 -186.66388545 240.40541707 C-190.61419162 240.41022906 -194.56437655 240.40591061 -198.51466727 240.39418084 C-199.93791207 240.39157179 -201.36116788 240.39233588 -202.78440803 240.39681406 C-204.71297665 240.40239548 -206.64157023 240.39450177 -208.5701279 240.38593525 C-209.63917181 240.38535225 -210.70821571 240.38476925 -211.80965488 240.38416859 C-215.1069298 240.10838367 -217.75981784 239.39820814 -220.81338799 238.13293558 C-223.43933661 234.07465136 -222.97169006 229.8028466 -222.81338799 225.13293558 C-222.15338799 224.80293558 -221.49338799 224.47293558 -220.81338799 224.13293558 C-220.75151299 223.39043558 -220.68963799 222.64793558 -220.62588799 221.88293558 C-219.53459299 218.18932173 -217.60589717 217.15499296 -214.50479424 215.05090433 C-212.81338799 214.13293558 -212.81338799 214.13293558 -210.81338799 214.13293558 C-210.48338799 213.14293558 -210.15338799 212.15293558 -209.81338799 211.13293558 C-209.15338799 211.13293558 -208.49338799 211.13293558 -207.81338799 211.13293558 C-207.66901299 210.51418558 -207.52463799 209.89543558 -207.37588799 209.25793558 C-206.81338799 207.13293558 -206.81338799 207.13293558 -205.81338799 205.13293558 C-204.16338799 205.13293558 -202.51338799 205.13293558 -200.81338799 205.13293558 C-200.56588799 204.24606058 -200.31838799 203.35918558 -200.06338799 202.44543558 C-198.75674086 198.9828207 -197.38361983 196.78105324 -194.81338799 194.13293558 C-193.82338799 194.13293558 -192.83338799 194.13293558 -191.81338799 194.13293558 C-191.81338799 193.47293558 -191.81338799 192.81293558 -191.81338799 192.13293558 C-190.32838799 191.14293558 -190.32838799 191.14293558 -188.81338799 190.13293558 C-188.13276299 188.95731058 -188.13276299 188.95731058 -187.43838799 187.75793558 C-185.59655648 184.78266931 -183.67763097 183.11587303 -180.81338799 181.13293558 C-180.15338799 181.13293558 -179.49338799 181.13293558 -178.81338799 181.13293558 C-178.56588799 180.41106058 -178.31838799 179.68918558 -178.06338799 178.94543558 C-176.22469362 174.80837324 -174.43604108 171.7744496 -170.12588799 170.07043558 C-169.36276299 169.76106058 -168.59963799 169.45168558 -167.81338799 169.13293558 C-167.21277566 167.23114773 -167.21277566 167.23114773 -166.81338799 165.13293558 C-164.96738651 162.96865799 -163.48101226 161.42921061 -160.86807549 160.26965433 C-158.37854137 158.89236455 -157.34329483 157.41021203 -155.75088799 155.07043558 C-153.14100109 151.24213995 -153.14100109 151.24213995 -149.81338799 150.13293558 C-149.81338799 149.14293558 -149.81338799 148.15293558 -149.81338799 147.13293558 C-148.82338799 147.13293558 -147.83338799 147.13293558 -146.81338799 147.13293558 C-146.73088799 146.53481058 -146.64838799 145.93668558 -146.56338799 145.32043558 C-145.60399436 142.52220416 -144.17289278 141.82882965 -141.81338799 140.13293558 C-141.48338799 139.14293558 -141.15338799 138.15293558 -140.81338799 137.13293558 C-138.75088799 136.44543558 -138.75088799 136.44543558 -136.81338799 136.13293558 C-136.73088799 135.55543558 -136.64838799 134.97793558 -136.56338799 134.38293558 C-135.56818243 131.3973189 -134.28888365 130.05832109 -131.81338799 128.13293558 C-129.06338799 127.88293558 -129.06338799 127.88293558 -126.81338799 128.13293558 C-126.81338799 126.48293558 -126.81338799 124.83293558 -126.81338799 123.13293558 C-125.82338799 122.80293558 -124.83338799 122.47293558 -123.81338799 122.13293558 C-123.31838799 120.64793558 -123.31838799 120.64793558 -122.81338799 119.13293558 C-120.75088799 118.44543558 -120.75088799 118.44543558 -118.81338799 118.13293558 C-118.73088799 117.57606058 -118.64838799 117.01918558 -118.56338799 116.44543558 C-117.56949021 113.38091743 -115.981762 111.49263671 -113.81338799 109.13293558 C-112.82338799 108.80293558 -111.83338799 108.47293558 -110.81338799 108.13293558 C-109.09771138 104.62998687 -109.09771138 104.62998687 -107.81338799 101.13293558 C-106.32838799 101.62793558 -106.32838799 101.62793558 -104.81338799 102.13293558 C-104.81338799 101.47293558 -104.81338799 100.81293558 -104.81338799 100.13293558 C-102.93838799 98.00793558 -102.93838799 98.00793558 -100.81338799 96.13293558 C-100.15338799 96.13293558 -99.49338799 96.13293558 -98.81338799 96.13293558 C-98.81338799 94.81293558 -98.81338799 93.49293558 -98.81338799 92.13293558 C-97.82338799 92.13293558 -96.83338799 92.13293558 -95.81338799 92.13293558 C-94.15837525 90.43848649 -94.15837525 90.43848649 -92.68838799 88.25793558 C-92.17018486 87.53863871 -91.65198174 86.81934183 -91.11807549 86.07824808 C-89.7803897 84.17259569 -89.7803897 84.17259569 -88.81338799 82.13293558 C-87.82338799 82.13293558 -86.83338799 82.13293558 -85.81338799 82.13293558 C-85.48338799 81.14293558 -85.15338799 80.15293558 -84.81338799 79.13293558 C-83.66870049 78.54512308 -83.66870049 78.54512308 -82.50088799 77.94543558 C-79.60008495 75.98908004 -79.20363299 75.1610689 -77.87588799 72.07043558 C-76.91885674 69.91809183 -76.91885674 69.91809183 -75.81338799 68.13293558 C-73.82982316 67.41885225 -71.83023362 66.74675817 -69.81338799 66.13293558 C-69.1208057 64.1417615 -68.45591164 62.14082199 -67.81338799 60.13293558 C-65.83392207 58.7693035 -63.83146349 57.43874914 -61.81338799 56.13293558 C-60.5217816 54.50995497 -60.5217816 54.50995497 -59.37588799 52.69543558 C-57.58400165 49.96411369 -55.94372672 48.3831822 -53.18838799 46.63293558 C-50.38177041 44.82221456 -49.33569306 43.54106631 -48.25088799 40.38293558 C-47.77651299 39.31043558 -47.30213799 38.23793558 -46.81338799 37.13293558 C-43.75088799 36.44543558 -43.75088799 36.44543558 -40.81338799 36.13293558 C-39.37701101 34.1813044 -39.37701101 34.1813044 -38.81338799 32.13293558 C-38.15338799 32.13293558 -37.49338799 32.13293558 -36.81338799 32.13293558 C-37.14338799 30.81293558 -37.47338799 29.49293558 -37.81338799 28.13293558 C-36.00088799 26.57043558 -36.00088799 26.57043558 -33.81338799 25.13293558 C-32.82338799 25.46293558 -31.83338799 25.79293558 -30.81338799 26.13293558 C-30.48338799 25.14293558 -30.15338799 24.15293558 -29.81338799 23.13293558 C-29.15338799 23.13293558 -28.49338799 23.13293558 -27.81338799 23.13293558 C-28.02995049 22.05012308 -28.02995049 22.05012308 -28.25088799 20.94543558 C-27.72919258 17.59167937 -27.14443478 17.26421999 -24.50088799 15.32043558 C-21.88938196 13.54110757 -21.07665472 13.13293558 -17.81338799 13.13293558 C-17.73088799 12.03981058 -17.64838799 10.94668558 -17.56338799 9.82043558 C-16.81338799 6.13293558 -16.81338799 6.13293558 -15.12588799 4.32043558 C-12.42984967 2.93598347 -9.70386547 2.03219524 -6.81338799 1.13293558 C-4.98501355 -0.69543886 -2.43377078 0.00802186 0 0 Z M-97.81338799 94.13293558 C-97.15338799 94.79293558 -96.49338799 95.45293558 -95.81338799 96.13293558 C-95.81338799 95.47293558 -95.81338799 94.81293558 -95.81338799 94.13293558 C-96.47338799 94.13293558 -97.13338799 94.13293558 -97.81338799 94.13293558 Z " fill="#FFFFFF" transform="translate(870.8133879899979,474.86706441640854)"/>
<path d="M0 0 C110.55 0 221.1 0 335 0 C335 0.66 335 1.32 335 2 C224.12 2 113.24 2 -1 2 C-0.67 1.34 -0.34 0.68 0 0 Z " fill="#FFFFFF" transform="translate(567,768)"/>
</svg>
