<svg width="512" height="512" viewBox="0 0 512 512" fill="none" xmlns="http://www.w3.org/2000/svg">
<g clip-path="url(#clip0_1_2)">
<path d="M135.177 492.101C128.586 479.309 4.01534 244.076 3.35623 241.944C2.69713 239.812 1.37891 237.68 0.719811 233.416C0.0607109 229.152 -0.500403 224.595 0.719811 219.203C3.70435 206.013 18.5157 196.461 25.1067 196.461H388.274C397.501 196.461 408.706 216.36 409.365 219.914C410.024 223.467 410.683 229.863 409.365 232.706C408.047 235.548 372.455 321.54 338.182 321.54H207.02C180.656 321.54 189.912 389.204 226.793 390.475C263.674 391.746 427.161 391.896 439.025 391.896C450.889 391.896 468.025 407.531 471.98 412.506C475.935 417.481 503.617 462.253 509.549 481.441C515.481 500.629 498.344 512 491.094 512H166.814C162.86 512 141.768 504.893 135.177 492.101Z" fill="#5A5AFF" stroke="#5A5AFF"/>
<path d="M438.366 122.552H129.904C120.018 122.552 106.176 109.759 106.176 99.0994V82.7539C106.176 75.6471 143.746 0.315904 174.723 0.315875C205.701 0.315847 467.366 -0.39483 488.457 0.315875C509.549 1.02658 516.139 30.8748 509.549 45.7989C502.958 60.7231 495.049 78.4899 485.821 94.1247C476.593 109.759 455.502 122.552 438.366 122.552Z" fill="#5A5AFF" stroke="#5A5AFF"/>
</g>
<defs>
<clipPath id="clip0_1_2">
<rect width="512" height="512" fill="white"/>
</clipPath>
</defs>
</svg>
