<svg width="16" height="16" viewBox="0 0 16 16" fill="none" xmlns="http://www.w3.org/2000/svg">
<path d="M4.75247 12.8C5.62376 12.8 6.33663 13.52 6.33663 14.4C6.33663 15.28 5.62376 16 4.75247 16C3.88119 16 3.16832 15.28 3.16832 14.4C3.16832 13.52 3.88119 12.8 4.75247 12.8ZM12.6733 12.8C13.5446 12.8 14.2574 13.52 14.2574 14.4C14.2574 15.28 13.5446 16 12.6733 16C11.802 16 11.0891 15.28 11.0891 14.4C11.0891 13.52 11.802 12.8 12.6733 12.8ZM4.91089 10.24C4.91089 10.32 4.9901 10.4 5.06931 10.4H14.2574V12H4.75247C3.88119 12 3.16832 11.28 3.16832 10.4C3.16832 10.08 3.24752 9.84 3.32673 9.6L4.35644 7.68L1.58416 1.6H0V0H2.61386L6.0198 7.2H11.5644L14.6535 1.6L16 2.4L12.9109 8C12.6733 8.48 12.1188 8.8 11.5644 8.8H5.62376L4.91089 10.08V10.24Z" 
fill="#FFFFFF"/>
</svg>
