<svg width="13" height="12" viewBox="0 0 13 12" fill="none" xmlns="http://www.w3.org/2000/svg">
<path d="M4.21527 2.38549L2.78687 3.11874L3.58678 1.80937L2.78687 0.5L4.21527 1.23325L5.64367 0.5L4.84377 1.80937L5.64367 3.11874L4.21527 2.38549ZM11.0716 7.51821L12.5 6.78497L11.7001 8.09433L12.5 9.4037L11.0716 8.67046L9.6432 9.4037L10.4431 8.09433L9.6432 6.78497L11.0716 7.51821ZM12.5 0.5L11.7001 1.80937L12.5 3.11874L11.0716 2.38549L9.6432 3.11874L10.4431 1.80937L9.6432 0.5L11.0716 1.23325L12.5 0.5ZM7.55202 6.14599L8.94614 4.86805L7.73485 3.75771L6.34073 5.03565L7.55202 6.14599ZM8.14052 3.27062L9.4775 4.49619C9.70033 4.68998 9.70033 5.03041 9.4775 5.23467L2.80973 11.3468C2.58689 11.5511 2.21551 11.5511 2.00411 11.3468L0.667123 10.1212C0.444292 9.92745 0.444292 9.58701 0.667123 9.38275L7.3349 3.27062C7.55773 3.06636 7.92911 3.06636 8.14052 3.27062Z" 
fill="#FFFFFF"/>
</svg>
