<svg width="12" height="18" viewBox="0 0 12 18" fill="none" xmlns="http://www.w3.org/2000/svg">
<path d="M4.61354 11.6501L4.60679 11.6331C4.50538 11.6031 4.40483 11.5699 4.30527 11.5335L4.29777 11.5303C3.26162 11.1477 2.36226 10.425 1.72557 9.46342C1.08889 8.50184 0.746747 7.34946 0.747047 6.16761C0.746712 4.71715 1.2618 3.32178 2.18623 2.26891C3.11065 1.21605 4.37401 0.585855 5.71608 0.508145C7.05815 0.430435 8.37674 0.911123 9.40024 1.8512C10.4237 2.79128 11.0742 4.11916 11.2177 5.56133C11.2507 5.89482 10.9957 6.16761 10.6852 6.16761C10.3746 6.16761 10.1264 5.89401 10.0851 5.56214C9.98537 4.7788 9.69413 4.03826 9.24134 3.41663C8.78856 2.795 8.19056 2.31469 7.5088 2.02508C6.82705 1.73546 6.08614 1.64699 5.36221 1.76874C4.63828 1.8905 3.95745 2.21809 3.38969 2.71786C2.82193 3.21762 2.38772 3.87153 2.13168 4.61238C1.87564 5.35323 1.80702 6.15429 1.93286 6.93324C2.05869 7.71219 2.37446 8.44093 2.84769 9.04456C3.32093 9.6482 3.93456 10.1049 4.62554 10.3679C4.76473 10.0283 5.00784 9.75074 5.31413 9.58163C5.62041 9.41252 5.97125 9.36216 6.30784 9.43901C6.64443 9.51585 6.94632 9.71522 7.1629 10.0037C7.37949 10.2922 7.49761 10.6522 7.49747 11.0235C7.49782 11.3977 7.37805 11.7605 7.15853 12.0501C6.93902 12.3398 6.63331 12.5384 6.29341 12.6122C5.9535 12.6861 5.60039 12.6306 5.29413 12.4552C4.98787 12.2797 4.74737 11.9952 4.61354 11.6501ZM3.84474 12.6457C2.96039 12.3029 2.15718 11.7534 1.49259 11.0365C1.08167 11.0881 0.702624 11.3008 0.427456 11.6341C0.152288 11.9675 0.000170499 12.3984 0 12.8448V13.5895C0 14.0525 0.133508 14.5042 0.382524 14.8814C1.5391 16.6331 3.43221 17.5 5.99737 17.5C8.56253 17.5 10.4564 16.6323 11.6152 14.8814C11.8654 14.5038 11.9999 14.0513 12 13.5871V12.844C12 12.3613 11.8224 11.8983 11.5062 11.5567C11.1901 11.2152 10.7612 11.0232 10.3139 11.0227H8.62254C8.62265 11.6257 8.44454 12.2129 8.11409 12.699C7.78365 13.1852 7.31811 13.5449 6.78518 13.7258C6.25226 13.9068 5.67975 13.8995 5.15091 13.7051C4.62208 13.5107 4.1645 13.1401 3.84474 12.6457ZM8.99756 6.16761C8.99756 5.69443 8.90146 5.22699 8.71603 4.79821C8.53059 4.36943 8.26032 3.98972 7.92425 3.68582C7.61228 3.40418 7.25051 3.19394 6.86092 3.06788C6.47133 2.94182 6.06205 2.90256 5.65797 2.95249C5.25388 3.00242 4.86343 3.1405 4.51032 3.35834C4.15722 3.57618 3.84884 3.86922 3.60394 4.21967C3.35903 4.57012 3.18271 4.97064 3.08569 5.39691C2.98866 5.82318 2.97296 6.26629 3.03954 6.69931C3.10612 7.13233 3.25359 7.54622 3.47298 7.91583C3.69237 8.28543 3.97911 8.60304 4.31577 8.84934C4.78763 8.42429 5.38274 8.1914 5.99737 8.19125C6.63716 8.19125 7.2237 8.43813 7.67973 8.84934C8.08573 8.5526 8.41815 8.15298 8.64789 7.68547C8.87763 7.21796 8.99769 6.6968 8.99756 6.16761Z" 
fill="#FFFFFF"/>
</svg>
